M48
; DRILL file {KiCad (5.1.2)-1} date 29/12/2019 15:01:22
; FORMAT={-:-/ absolute / inch / decimal}
; #@! TF.CreationDate,2019-12-29T15:01:22+01:00
; #@! TF.GenerationSoftware,Kicad,Pcbnew,(5.1.2)-1
FMAT,2
INCH
T1C0.0118
T2C0.0118
T3C0.0157
T4C0.0354
T5C0.0362
T6C0.0394
T7C0.0433
T8C0.0551
T9C0.0689
T10C0.0906
T11C0.0787
%
G90
G05
T1
X0.96Y2.27
X0.965Y2.355
X1.18Y-0.29
X1.19Y-0.25
X1.2Y-0.21
X1.22Y-0.18
X1.95Y1.51
X1.9846Y1.54
X2.21Y1.99
X2.38Y-0.33
X2.44Y0.57
X2.46Y1.72
X2.48Y0.71
X2.6Y1.63
X2.6Y1.46
X2.67Y0.41
X2.6892Y0.3808
X2.71Y0.5
X2.7221Y0.3858
X2.73Y0.53
X2.7543Y0.3257
X2.82Y1.35
X2.88Y-0.32
X2.8899Y1.3553
X2.89Y1.49
X2.895Y1.3261
X2.8961Y0.0039
X2.9137Y1.3033
X2.92Y1.3644
X2.9872Y1.12
X3.0Y1.21
X3.03Y0.82
X3.04Y-0.15
X3.07Y0.79
X3.1109Y0.9109
X3.14Y0.87
X3.17Y0.85
X3.1704Y-0.0736
X3.18Y-0.04
X3.18Y-0.32
X3.2124Y-0.0209
X3.24Y0.0
X3.34Y0.1
X3.48Y2.07
X3.48Y-0.32
X3.5Y0.86
X3.64Y1.79
X3.66Y2.6
X3.72Y1.68
X3.78Y-0.32
X3.9Y-0.18
X3.96Y2.16
X4.19Y2.16
X4.48Y1.68
X4.5009Y1.6591
T2
X0.58Y0.62
X0.6Y0.46
X0.6Y0.37
X0.6Y0.26
X0.6Y0.22
X0.64Y0.73
X0.66Y1.62
X0.67Y0.95
X0.7134Y0.7807
X0.72Y1.48
X0.76Y2.04
X0.76Y1.24
X0.76Y1.2085
X0.76Y1.17
X0.76Y1.1385
X0.88Y1.98
X0.92Y1.21
X0.92Y1.1785
X1.2681Y2.275
X1.2788Y2.3336
X1.29Y1.17
X1.29Y1.02
X1.66Y0.04
X1.68Y-0.16
X1.7Y0.0
X1.7Y-0.04
X1.73Y0.08
X1.74Y1.58
X1.84Y0.24
X1.86Y1.42
X1.86Y1.36
X1.86Y1.12
X1.86Y1.04
X1.86Y0.86
X1.86Y0.8
X1.87Y1.65
X1.92Y0.28
X1.92Y0.24
X1.9593Y0.2793
X2.015Y0.85
X2.08Y0.62
X2.08Y0.54
X2.14Y0.08
X2.245Y1.05
X2.245Y0.6
X2.26Y0.18
X2.2823Y0.1554
X2.305Y0.6
X2.37Y0.85
X2.5Y0.08
X2.52Y0.6847
X2.5246Y0.1308
X2.5591Y0.144
X2.56Y0.1853
X2.56Y0.0
X2.5824Y0.3181
X2.5904Y0.1772
X2.64Y0.04
X2.6434Y0.6234
X2.6526Y0.0074
X2.66Y0.74
X2.66Y0.0753
X2.7Y0.02
X2.74Y0.16
X2.76Y0.54
X2.88Y0.84
X2.88Y0.56
X2.9Y0.16
X2.93Y0.15
X2.9341Y0.736
X2.9613Y0.7244
X3.105Y0.875
X3.2Y1.02
X3.2Y0.425
X3.22Y1.21
X3.245Y0.735
X3.26Y1.2328
X3.34Y0.76
X3.3623Y0.7377
X3.37Y-0.14
X3.44Y0.914
X3.49Y0.27
X3.52Y0.9796
X3.54Y0.03
X3.57Y0.79
X3.58Y1.92
X3.66Y1.08
X3.6749Y0.2349
X3.68Y1.8
X3.7Y0.94
X3.7Y0.9
X3.7223Y0.8777
X3.78Y0.58
X3.82Y1.8
X3.866Y1.22
X3.9Y0.0
X3.9353Y1.1977
X3.96Y1.8
X3.96Y1.22
X3.98Y0.18
X4.0Y-0.08
X4.1Y1.8
X4.14Y1.12
X4.14Y1.08
X4.14Y0.78
X4.14Y0.74
X4.14Y0.44
X4.14Y0.4
X4.14Y0.1
X4.14Y0.06
X4.22Y1.18
X4.22Y1.02
X4.22Y0.84
X4.22Y0.68
X4.22Y0.5
X4.22Y0.34
X4.22Y0.16
X4.22Y0.0
X4.24Y1.8
X4.38Y1.8
X4.4Y1.04
X4.4Y0.7
X4.4Y0.36
X4.4Y0.02
X4.48Y1.16
X4.48Y1.12
X4.48Y1.08
X4.48Y1.04
X4.48Y0.82
X4.48Y0.78
X4.48Y0.74
X4.48Y0.7
X4.48Y0.48
X4.48Y0.44
X4.48Y0.4
X4.48Y0.36
X4.48Y0.14
X4.48Y0.1
X4.48Y0.06
X4.48Y0.02
X4.62Y1.22
X4.62Y0.98
X4.62Y0.88
X4.62Y0.64
X4.62Y0.54
X4.62Y0.3
X4.62Y0.2
X4.62Y-0.04
X4.689Y1.269
X4.7553Y1.5223
X4.78Y1.5
X4.7977Y0.4223
X4.8Y1.18
X4.8Y1.14
X4.8Y1.08
X4.8Y0.84
X4.8Y0.78
X4.8Y0.72
X4.8Y0.5
X4.8Y0.46
X4.8Y0.16
X4.8Y0.12
X4.8Y0.08
X4.8Y0.04
X4.82Y0.4
X4.8223Y1.0577
X4.84Y0.68
X5.38Y1.32
X5.6Y1.72
X5.62Y1.3
X5.63Y1.96
X5.69Y1.37
X1.58Y1.5
X0.8Y1.88
X0.76Y1.36
X5.025Y0.995
X5.46Y1.65
X3.575Y1.125
X2.085Y2.165
X0.72Y0.96
X0.8Y0.28
X1.44Y2.005
X3.555Y1.475
X3.82Y2.13
X3.99Y1.11
X4.63Y-0.3
X4.18Y0.59
X2.91Y0.9
X4.75Y0.27
X3.57Y-0.21
X3.23Y0.53
X1.73Y0.89
X0.88Y0.07
X2.465Y2.315
X2.545Y1.875
X2.655Y1.755
X1.0Y0.16
X1.74Y1.38
X4.605Y0.59
X5.49Y1.865
X5.19Y0.79
X3.47Y1.09
X3.1Y1.345
X0.8Y0.92
X2.64Y2.51
X5.555Y1.29
X1.29Y-0.34
X2.95Y2.415
X2.67Y1.42
X1.69Y-0.08
X3.78Y-0.21
X3.1Y0.75
X2.18Y0.63
X0.83Y-0.09
X2.69Y1.65
X1.515Y0.23
X0.56Y1.12
X1.93Y1.76
X0.92Y0.08
X1.26Y1.48
X0.8Y1.34
X4.755Y1.325
X5.32Y1.81
X3.135Y1.15
X0.92Y0.22
X3.055Y1.89
X3.735Y1.195
X3.935Y1.95
X3.64Y1.05
X3.78Y2.195
X3.54Y1.335
X3.72Y0.43
X2.94Y-0.25
X4.57Y0.25
X3.29Y-0.1
X2.31Y0.01
X1.78Y0.94
X2.24Y2.25
X2.72Y1.84
X4.795Y0.2
X1.14Y0.12
X1.58Y1.22
X4.715Y1.51
X5.215Y2.12
X5.56Y1.415
X3.42Y-0.26
X3.295Y1.16
X2.085Y2.335
X1.3Y0.4
X1.66Y1.93
X5.445Y1.3
X2.14Y-0.335
X3.035Y2.415
X3.15Y-0.21
X3.37Y0.17
X3.93Y0.16
X3.43Y0.53
X1.78Y0.67
X2.23Y0.05
X2.285Y0.47
X2.76Y1.615
X5.035Y0.37
X0.56Y0.42
X2.17Y1.57
X1.08Y0.16
X1.74Y1.34
X1.08Y1.32
X4.935Y1.495
X5.63Y1.69
X3.47Y1.16
X1.08Y0.4
X1.965Y2.335
X3.62Y1.34
X4.55Y1.53
X3.63Y0.75
X4.225Y2.31
X3.285Y1.74
X3.54Y1.3
X2.74Y1.19
X4.2Y0.24
X2.55Y0.28
X1.7Y0.71
X2.17Y2.18
X2.76Y1.51
X4.69Y2.01
X1.71Y2.0
X1.54Y1.86
X0.68Y1.88
X4.19Y1.29
X5.56Y1.485
X5.13Y0.01
X3.365Y1.125
X3.1Y1.38
X0.8Y0.96
X2.995Y1.94
X4.275Y0.59
X5.47Y0.305
X3.23Y2.5
X2.46Y1.38
X4.49Y0.25
X4.29Y-0.21
X2.45Y0.85
X1.7Y0.87
X2.19Y0.24
X2.205Y1.095
X2.335Y0.56
X2.305Y1.745
X2.655Y1.58
X1.435Y0.15
X0.595Y0.415
X1.89Y1.9
X1.16Y0.08
X0.84Y1.88
X1.1Y0.82
X4.5Y1.285
X5.555Y1.7
X3.1Y1.115
X0.76Y0.98
X3.48Y1.785
X3.68Y1.345
X4.25Y1.885
X3.88Y2.6
X3.225Y1.89
X4.74Y1.69
X2.74Y1.11
X4.11Y-0.02
X2.37Y0.65
X1.7Y0.79
X2.24Y2.18
X2.585Y1.915
X3.23Y2.225
X4.77Y1.79
X1.74Y1.62
X1.26Y1.62
X3.99Y1.25
X5.37Y1.855
X4.97Y0.01
X3.14Y-0.04
X5.135Y2.365
X3.065Y1.22
X0.8Y0.64
X3.09Y1.89
X4.12Y0.93
X4.16Y-0.295
X2.46Y1.34
X4.67Y0.27
X3.85Y-0.21
X2.84Y0.24
X2.08Y0.32
X2.84Y0.06
X1.96Y0.57
X2.54Y0.405
X2.13Y2.04
X2.76Y1.58
X1.68Y0.295
X0.56Y0.685
X2.03Y1.37
X1.06Y0.2
X0.7Y1.84
X1.1Y0.66
X4.8Y1.465
X5.485Y1.365
X3.065Y1.15
X1.22Y0.48
X3.11Y2.415
X3.575Y1.23
X3.74Y1.905
X3.72Y2.46
X3.425Y1.71
X3.53Y1.37
X4.02Y0.59
X2.74Y1.26
X4.19Y-0.05
X2.36Y1.12
X1.74Y0.67
X2.135Y2.215
X2.525Y2.295
X2.835Y2.065
X1.86Y1.32
X0.76Y1.52
X4.585Y0.89
X5.525Y1.935
X5.19Y0.47
X3.81Y1.83
X4.0Y1.6
X3.135Y1.45
X0.8Y0.8
X3.3Y1.9
X5.345Y1.025
X5.7Y1.15
X1.87Y1.45
X4.71Y0.27
X3.71Y-0.21
X3.36Y0.45
X1.7Y0.67
X1.26Y-0.04
X1.935Y0.825
X3.475Y1.55
X2.125Y1.94
X2.69Y1.58
X5.035Y1.33
X1.1Y0.12
X0.72Y1.34
X1.3Y0.7
X4.565Y0.59
X4.73Y1.605
X5.49Y1.485
X3.205Y1.175
X0.76Y1.1
X2.795Y2.475
X3.87Y1.3
X4.125Y2.01
X2.75Y2.745
X3.375Y1.71
X3.565Y1.36
X3.89Y0.37
X3.43Y0.65
X3.85Y0.5
X2.58Y0.85
X1.9Y0.41
X2.17Y2.25
X2.6Y2.235
X2.29Y1.535
X1.2Y0.16
X1.86Y1.24
X0.8Y1.5
X4.31Y1.37
X5.635Y1.835
X4.355Y-0.2
X2.01Y2.79
X3.1Y1.22
X0.8Y0.44
X3.275Y1.71
X3.905Y2.075
X4.175Y0.85
X5.495Y2.28
X3.11Y-0.25
X4.14Y0.28
X3.21Y-0.25
X2.4Y0.12
X1.73Y0.73
X1.16Y-0.04
X2.985Y0.75
X2.235Y0.41
X2.335Y2.13
X2.415Y2.085
X2.795Y1.72
X4.425Y0.125
X1.18Y0.12
X1.66Y1.34
X1.1Y0.98
X4.83Y1.02
X4.19Y2.195
X5.46Y1.09
X3.1Y1.185
X0.76Y0.9
X2.54Y2.545
X3.955Y1.84
X2.885Y2.415
X3.025Y1.89
X4.78Y1.93
X2.77Y1.01
X4.03Y0.26
X2.1Y1.21
X2.08Y0.25
X2.17Y2.285
X2.88Y1.845
X0.595Y1.935
X3.225Y0.28
X1.68Y0.08
X1.8Y1.2
X0.8Y1.3
X4.645Y0.59
X5.525Y1.9
X5.09Y0.28
X3.86Y1.6
X2.085Y2.305
X0.76Y0.62
X3.52Y1.41
X3.935Y2.13
X5.345Y0.71
X5.47Y0.595
X2.545Y1.275
X4.09Y-0.08
X3.58Y-0.17
X2.44Y0.15
X1.67Y0.73
X0.72Y0.02
X2.625Y0.755
X2.015Y0.89
X2.37Y2.37
X2.615Y1.78
X2.76Y1.755
X2.795Y1.79
X1.12Y0.08
X0.66Y1.84
X1.22Y0.94
X4.795Y0.63
X4.445Y2.195
X5.19Y1.26
X3.365Y1.09
X3.135Y1.22
X1.12Y0.46
X1.885Y2.465
X4.04Y1.83
X2.81Y-0.33
X3.715Y2.745
X3.265Y1.54
X3.39Y0.7
X3.99Y0.34
X1.89Y0.83
X1.88Y0.14
X2.185Y2.13
X2.795Y1.545
X4.65Y1.235
X0.56Y1.66
X2.71Y-0.105
X0.92Y-0.04
X1.74Y1.1
X0.8Y1.38
X4.76Y0.93
X5.37Y1.79
X5.0Y-0.06
X3.585Y0.075
X3.505Y1.16
X2.085Y2.225
X0.8Y0.2
X3.59Y1.41
X4.45Y1.765
X3.67Y0.79
X3.875Y2.195
X2.615Y1.24
X4.68Y-0.07
X3.24Y-0.23
X2.85Y0.63
X1.73Y0.81
X1.77Y-0.07
X2.015Y1.01
X2.205Y2.18
X2.615Y1.72
X2.655Y1.685
X4.425Y0.465
X1.04Y0.16
X1.7Y1.36
X1.22Y0.78
X4.895Y1.65
X5.49Y1.935
X5.525Y1.45
X4.08Y-0.32
X3.33Y1.125
X3.1Y1.15
X3.135Y1.275
X2.705Y2.47
X4.39Y1.84
X5.735Y1.455
X3.595Y2.485
X2.545Y1.24
X3.23Y0.85
X3.87Y0.22
X3.37Y0.34
X2.43Y0.3
X1.29Y-0.19
X2.17Y2.32
X2.795Y1.615
X5.035Y0.54
X0.56Y1.28
X1.08Y0.08
X0.74Y1.84
X0.76Y1.44
X4.825Y0.92
X5.325Y1.965
X4.59Y-0.2
X5.295Y2.365
X3.1Y1.08
X2.155Y2.13
X0.8Y0.12
X3.83Y1.44
X4.28Y1.95
X3.795Y0.915
X1.89Y-0.335
X2.85Y0.96
X4.53Y0.25
X3.35Y-0.17
X2.82Y0.37
X1.9Y0.65
X1.4Y-0.17
X2.245Y2.13
X2.8Y1.87
X2.76Y1.79
X1.02Y0.12
X1.74Y1.3
X4.76Y0.605
X5.015Y1.97
X5.19Y1.57
X4.14Y1.6
X3.25Y1.145
X3.47Y1.125
X3.1Y1.31
X0.8Y0.68
X2.315Y2.665
X5.34Y1.34
X1.1Y-0.335
X3.77Y2.68
X3.15Y-0.17
X2.88Y0.93
X3.87Y0.16
X3.12Y0.59
X1.88Y0.77
X2.18Y0.01
X2.725Y1.545
X2.69Y1.755
X0.56Y1.37
X1.66Y1.58
X1.08Y1.96
X0.76Y1.32
X5.04Y1.135
X5.43Y2.12
X3.505Y1.09
X3.065Y1.31
X0.76Y0.86
X0.8Y0.32
X2.125Y2.67
X3.57Y1.56
X5.34Y1.18
X3.715Y0.835
X5.735Y2.03
X3.07Y-0.25
X4.29Y-0.01
X3.21Y-0.21
X3.44Y0.27
X1.69Y0.46
X0.85Y0.07
X2.215Y2.13
X2.5Y2.315
X4.405Y0.82
X1.1Y0.2
X0.82Y1.92
X4.835Y1.33
X5.56Y1.865
X5.525Y1.415
X3.27Y-0.25
X3.1Y1.485
X0.76Y1.02
X2.665Y2.61
X5.345Y0.865
X5.05Y2.195
X3.345Y2.465
X1.85Y1.5
X3.03Y0.06
X3.65Y0.01
X3.52Y0.3
X2.15Y1.15
X2.6Y0.0
X2.655Y1.65
X2.915Y2.23
X0.55Y0.155
X1.12Y0.34
X1.24Y1.42
X0.76Y1.28
X5.02Y1.495
X5.61Y1.865
X3.575Y1.16
X0.94Y0.48
X2.01Y2.385
X3.535Y1.44
X4.325Y2.05
X3.7Y1.06
X4.095Y2.44
X3.4Y1.71
X3.63Y1.375
X2.5Y1.24
X4.25Y-0.07
X2.68Y-0.33
X2.38Y0.05
X1.95Y0.47
X2.365Y2.13
X2.795Y1.51
X1.7Y0.575
X0.98Y0.12
X1.7Y1.32
X4.585Y0.625
X5.49Y1.415
X4.51Y-0.12
X3.5Y-0.26
X3.385Y-0.005
X3.065Y1.275
X0.72Y1.0
X1.785Y1.765
X5.345Y0.55
X2.09Y-0.105
X3.43Y2.59
X2.43Y1.36
X3.96Y-0.02
X3.9Y-0.06
X2.91Y0.7
X1.9Y0.57
X0.68Y-0.05
X2.405Y0.85
X2.795Y1.58
X4.425Y0.805
X0.545Y-0.05
X1.58Y1.8
X0.7Y1.92
X1.1Y1.08
X4.825Y1.395
X5.555Y1.665
X3.17Y1.15
X0.94Y0.8
X1.7Y1.825
X3.585Y1.335
X5.34Y1.5
X4.155Y2.5
X3.45Y1.71
X4.83Y1.87
X2.61Y-0.17
X2.74Y1.15
X4.14Y0.21
X2.62Y0.28
X2.09Y0.5
X2.305Y2.13
X2.8Y1.835
X3.965Y2.315
X1.7Y1.56
X0.76Y1.88
X4.115Y1.25
X5.34Y2.19
X4.89Y-0.06
X3.15Y-0.11
X3.365Y1.16
X3.065Y1.38
X0.76Y0.74
X3.195Y1.89
X4.13Y0.685
X0.81Y-0.33
X3.12Y2.505
X2.41Y1.33
X4.29Y0.17
X3.64Y-0.21
X2.97Y0.11
X1.57Y0.94
X2.18Y0.15
X2.09Y0.735
X2.68Y0.445
X2.66Y1.84
X2.76Y1.685
X4.8Y0.3
X0.56Y0.955
X2.04Y1.21
X1.2Y0.2
X1.74Y1.06
X1.1Y0.76
X4.58Y1.26
X5.525Y1.535
X3.505Y1.125
X0.8Y1.0
X2.02Y2.56
X3.63Y1.195
X4.535Y1.97
X3.825Y2.6
X3.225Y1.855
X3.595Y1.375
X4.01Y0.37
X2.77Y0.95
X4.63Y-0.13
X2.27Y0.73
X1.7Y0.83
X2.31Y2.18
X2.84Y1.78
X2.835Y2.265
X1.61Y2.13
X1.66Y1.62
X1.28Y1.34
X4.585Y0.555
X5.37Y1.73
X4.87Y-0.2
X2.045Y0.575
X3.06Y1.54
X0.76Y0.42
X3.055Y1.855
X5.345Y0.395
X5.145Y-0.19
X2.47Y1.3
X4.23Y0.2
X4.28Y-0.17
X3.49Y0.46
X2.34Y0.26
X0.66Y0.07
X1.94Y1.015
X2.345Y0.38
X2.725Y1.51
X2.725Y1.615
X2.03Y0.665
X1.24Y0.08
X0.72Y1.42
X1.14Y0.78
X4.725Y1.545
X5.525Y1.365
X3.135Y1.185
X0.76Y1.06
X3.185Y2.41
X3.82Y1.33
X4.45Y1.715
X3.76Y2.495
X3.025Y1.855
X3.54Y1.265
X4.05Y0.37
X3.245Y0.785
X4.03Y-0.02
X2.27Y1.2
X1.7Y0.49
X2.205Y2.25
X2.41Y2.015
X2.68Y2.065
X3.085Y0.005
X1.88Y1.28
X0.76Y1.56
X4.64Y0.93
X5.505Y1.65
X5.18Y0.21
X2.545Y1.205
X3.1Y1.45
X0.76Y0.58
X3.31Y1.825
X3.845Y0.685
X5.375Y0.03
X2.66Y1.19
X4.71Y0.23
X2.99Y-0.25
X3.06Y0.53
X1.9Y0.53
X1.79Y-0.19
X2.015Y1.085
X2.32Y0.875
X2.615Y1.66
X2.69Y1.545
X4.4Y0.145
X0.94Y0.12
X1.66Y1.02
X1.1Y1.24
X4.38Y1.285
X4.93Y1.975
X5.56Y1.45
X3.17Y1.08
X0.76Y0.94
X2.56Y2.59
X3.75Y1.35
X3.815Y1.985
X2.955Y2.74
X3.35Y1.71
X3.65Y1.345
X4.77Y1.64
X3.21Y0.14
X3.74Y0.5
X2.04Y1.14
X1.9Y0.45
X2.135Y2.25
X2.275Y1.86
X2.15Y1.655
X2.73Y-0.175
X1.04Y0.08
X1.84Y1.2
X0.8Y1.58
X4.315Y0.42
X5.44Y1.9
X4.95Y0.14
X3.135Y1.31
X0.8Y0.52
X3.47Y1.845
X4.395Y1.395
X4.275Y0.93
X4.78Y2.31
X2.79Y1.46
X4.64Y0.25
X3.54Y-0.18
X3.17Y0.59
X2.15Y0.47
X1.3Y-0.11
X2.43Y0.655
X2.22Y0.57
X2.135Y2.32
X2.655Y1.51
X2.69Y1.72
X4.405Y0.48
X1.06Y0.12
X0.66Y1.92
X1.1Y0.92
X4.84Y0.64
X4.81Y1.545
X5.19Y1.73
X3.4Y1.09
X3.135Y1.115
X0.8Y0.84
X2.535Y2.735
X3.895Y1.905
X2.88Y2.575
X3.3Y1.71
X3.575Y1.195
X2.73Y0.99
X4.03Y0.3
X2.0Y1.18
X2.27Y0.32
X2.415Y2.285
X2.72Y1.895
X0.56Y1.855
X2.85Y-0.175
X1.5Y0.065
X1.9Y1.24
X0.8Y1.54
X4.785Y0.57
X5.63Y1.74
X4.83Y0.01
X1.2175Y2.0575
X3.135Y1.045
X2.085Y2.275
X0.76Y0.38
X3.555Y1.41
X5.665Y1.29
X4.175Y1.015
X3.545Y2.22
X2.97Y0.28
X4.32Y-0.11
X3.24Y-0.15
X3.17Y0.64
X1.62Y0.67
X1.4Y-0.11
X2.535Y0.845
X2.275Y0.56
X2.405Y2.37
X2.3Y1.775
X2.725Y1.755
X5.035Y0.685
X1.06Y-0.04
X1.7Y1.16
X1.22Y0.62
X4.6Y0.93
X4.925Y1.81
X5.19Y1.1
X2.58Y1.275
X3.54Y1.16
X2.085Y2.195
X0.76Y0.7
X1.74Y2.66
X4.06Y2.07
X2.43Y-0.105
X3.445Y2.75
X3.31Y0.25
X3.95Y0.34
X2.78Y0.51
X2.6Y0.79
X2.58Y0.06
X2.415Y2.32
X2.655Y1.545
X2.69Y1.79
X0.56Y1.57
X1.36Y0.22
X1.78Y1.24
X0.8Y1.42
X4.585Y0.97
X5.44Y1.865
X4.99Y-0.2
X5.215Y2.195
X3.17Y1.175
X2.09Y2.13
X0.8Y0.16
X4.11Y1.435
X4.31Y1.83
X3.515Y0.8
X3.42Y2.24
X2.68Y1.26
X4.75Y0.23
X3.24Y-0.19
X2.89Y0.6
X1.66Y0.67
X1.56Y-0.08
X2.165Y1.035
X2.445Y2.37
X2.615Y1.53
X2.655Y1.72
X4.425Y1.145
X1.12Y0.16
X0.78Y1.84
X4.115Y1.175
X5.56Y1.9
X5.19Y0.95
X3.505Y1.055
X3.205Y1.115
X3.065Y1.345
X0.76Y0.82
X2.43Y2.49
X4.465Y1.36
X4.345Y2.31
X3.445Y2.5
X2.5Y1.28
X2.82Y0.99
X3.81Y0.16
X3.3Y0.41
X2.49Y0.27
X1.13Y-0.1
X2.795Y1.65
X4.635Y1.835
X0.56Y1.2
X1.58Y1.84
X0.74Y1.92
X0.76Y1.4
X4.875Y1.065
X5.61Y1.935
X4.47Y-0.2
X3.47Y1.055
X3.4Y1.125
X3.1Y1.275
X0.76Y0.54
X3.15Y1.955
X3.685Y1.435
X4.44Y1.585
X4.025Y1.185
X0.59Y-0.285
X3.38Y0.59
X4.31Y0.08
X3.53Y-0.02
X3.65Y0.44
X1.86Y0.41
X1.7Y-0.19
X2.135Y2.18
X2.705Y1.87
X2.725Y1.79
X0.96Y0.08
X1.7Y1.12
X4.525Y0.59
X5.075Y2.07
X5.44Y1.16
X3.24Y-0.27
X3.435Y1.055
X3.54Y1.09
X3.1Y1.415
X0.8Y0.88
X2.8Y2.4
X5.56Y1.19
X5.735Y1.825
X3.555Y2.53
X3.12Y-0.14
X3.23Y0.59
X3.53Y0.14
X3.49Y0.6
X2.31Y0.66
X1.1Y-0.16
X2.69Y1.615
X1.925Y0.69
X1.86Y1.76
X1.16Y0.16
X1.26Y1.78
X0.72Y1.3
X4.8Y1.225
X5.19Y1.89
X3.065Y1.115
X3.065Y1.45
X0.92Y0.32
X0.8Y0.36
X1.44Y2.05
X3.485Y1.475
X4.0Y2.01
X3.525Y0.835
X4.78Y2.125
X4.86Y1.79
X2.99Y-0.2
X4.23Y0.28
X3.21Y-0.17
X2.82Y0.47
X1.9Y0.49
X1.32Y-0.04
X2.275Y2.18
X2.605Y1.5
X4.825Y0.355
X1.0Y0.08
X1.7Y1.4
X4.72Y0.93
X5.485Y1.535
X5.19Y0.63
X3.435Y1.09
X3.065Y1.485
X0.92Y0.76
X1.89Y2.335
X4.0Y0.5
X5.03Y2.31
X3.445Y2.68
X2.63Y1.43
X3.27Y0.05
X3.9Y-0.13
X3.17Y0.53
X2.08Y0.42
X0.66Y0.03
X2.655Y1.615
X5.035Y0.845
X0.56Y0.51
X1.93Y1.56
X1.28Y0.08
X1.7Y1.08
X1.0Y1.34
X4.875Y1.54
X5.525Y1.865
X3.17Y1.115
X0.92Y0.44
X3.195Y1.855
X3.7Y1.195
X4.165Y2.065
X3.605Y0.81
X3.92Y2.685
X3.325Y1.71
X3.54Y1.23
X2.71Y1.23
X4.19Y0.19
X2.3Y0.12
X1.73Y0.85
X2.17Y2.215
X2.69Y1.84
X1.595Y0.33
X1.85Y2.17
X0.94Y1.88
X0.78Y1.92
X4.52Y0.93
X5.565Y1.535
X4.41Y-0.12
X3.33Y1.16
X3.135Y1.345
X0.72Y1.04
X2.64Y2.395
X4.135Y0.5
X4.415Y-0.295
X3.335Y2.565
X2.5Y1.44
X4.27Y0.25
X4.03Y0.16
X2.73Y0.47
X1.58Y0.67
X0.73Y-0.15
X1.975Y0.675
X2.41Y0.41
X2.795Y1.685
X1.5Y0.095
X0.595Y0.51
X1.9Y1.62
X1.5Y1.9
X0.72Y1.88
X1.3Y0.86
X4.61Y1.4
X5.555Y1.74
X3.435Y1.16
X0.8Y1.04
X2.48Y2.67
X3.665Y1.195
X4.125Y2.13
X3.92Y2.5
X3.49Y1.74
X4.64Y1.59
X3.79Y0.34
X2.615Y1.205
X4.09Y0.32
X2.14Y0.73
X1.9Y0.61
X2.275Y2.13
X2.525Y2.26
X2.79Y2.635
X4.61Y1.71
X1.7Y1.6
X1.1Y1.84
X4.315Y1.1
X5.37Y1.92
X5.09Y0.14
X2.49Y2.8
X3.135Y1.38
X0.8Y0.76
X3.125Y1.89
X4.0Y0.685
X2.275Y-0.105
X3.01Y2.5
X1.7Y1.44
X4.09Y0.17
X3.82Y0.55
X3.13Y0.41
X1.67Y0.81
X2.08Y0.15
X1.94Y0.885
X2.535Y0.465
X2.615Y1.75
X2.725Y1.65
X1.77Y0.595
X0.56Y0.765
X1.93Y1.86
X1.02Y0.2
X1.7Y1.28
X1.16Y0.64
X4.7Y1.375
X5.565Y1.365
X3.54Y1.125
X0.8Y0.6
X1.9Y2.66
X3.575Y1.265
X4.535Y2.125
X3.71Y2.65
X3.315Y1.74
X3.54Y1.195
X3.93Y0.37
X2.58Y1.205
X4.18Y0.32
X2.52Y0.91
X1.7Y0.75
X2.205Y2.215
X2.25Y1.87
X3.07Y2.23
X1.93Y2.03
X1.7Y1.64
X1.12Y1.42
X4.685Y0.59
X5.56Y1.935
X5.12Y-0.06
X1.76Y2.8
X3.065Y1.415
X0.76Y0.5
X3.16Y1.89
X3.985Y0.935
X5.47Y0.9
X2.47Y1.26
X4.09Y0.24
X3.92Y-0.21
X3.43Y0.38
X1.73Y0.77
X1.77Y-0.13
X1.94Y0.94
X2.365Y0.95
X2.415Y2.05
X2.725Y1.685
X4.405Y1.16
X1.2Y0.08
X1.66Y1.06
X1.12Y0.62
X4.81Y1.605
X5.49Y1.45
X3.61Y1.16
X0.8Y1.08
X2.075Y2.505
X3.575Y1.3
X4.45Y1.84
X3.58Y2.605
X3.49Y1.655
X3.29Y1.26
X3.3Y0.66
X3.78Y0.62
X2.45Y1.04
X1.72Y0.45
X2.24Y2.215
X2.505Y1.835
X2.755Y2.1
X1.88Y1.2
X0.76Y1.6
X4.68Y0.93
X5.05Y1.89
X4.7Y-0.2
X3.445Y0.05
X3.135Y1.485
X0.8Y0.48
X3.31Y1.77
X4.05Y0.835
X5.62Y2.15
X3.15Y-0.25
X4.59Y0.29
X3.03Y-0.25
X3.01Y0.61
X1.74Y0.48
X1.56Y-0.16
X2.415Y0.73
X2.4Y0.56
X2.69Y1.51
X2.69Y1.685
X2.655Y1.79
X2.36Y1.37
X1.14Y0.2
X1.66Y1.3
X1.1Y0.58
X4.725Y0.59
X4.345Y2.195
X5.525Y1.485
X3.4Y1.16
X0.72Y1.08
X2.075Y2.735
X4.53Y1.7
X3.95Y2.555
X4.68Y1.64
X3.97Y0.37
X2.58Y1.24
X4.03Y0.22
X2.09Y1.09
X1.69Y0.42
X2.205Y2.285
X2.84Y1.815
X2.045Y1.745
X1.95Y1.95
X1.64Y0.08
X1.82Y1.24
X0.8Y1.46
X4.32Y0.76
X5.44Y1.935
X5.24Y0.13
X2.61Y0.15
X3.09Y1.54
X0.8Y0.56
X3.565Y1.725
X4.535Y1.8
X3.89Y0.835
X3.35Y2.24
X2.44Y1.31
X4.58Y-0.08
X3.57Y-0.02
X2.92Y0.53
X2.01Y0.47
X0.96Y-0.1
X2.015Y0.95
X2.215Y0.48
X2.275Y2.215
X2.27Y1.775
X2.725Y1.72
X1.465Y0.095
X1.7Y1.74
X1.7Y1.0
X1.06Y0.54
X4.28Y1.29
X4.78Y2.19
X5.19Y1.42
X3.25Y1.18
X3.065Y1.185
X0.76Y0.66
X1.955Y2.62
X4.45Y1.98
X5.74Y1.625
X3.205Y2.76
X3.265Y1.66
X3.09Y0.16
X4.03Y0.34
X1.83Y0.63
X2.26Y0.26
X2.135Y2.285
X2.76Y1.545
X0.56Y1.755
X1.74Y2.21
X1.465Y0.065
X1.74Y1.14
X0.72Y1.38
X4.56Y0.93
X5.59Y1.645
X5.35Y0.23
X3.72Y1.6
X3.435Y1.125
X2.085Y2.25
X0.8Y0.24
X3.57Y1.44
X4.025Y1.94
X4.075Y1.025
X3.85Y2.405
X2.69Y1.46
X4.59Y0.21
X3.49Y-0.13
X3.56Y0.53
X1.67Y0.77
X1.91Y-0.19
X2.345Y0.73
X2.41Y0.465
X2.335Y2.37
X2.53Y2.225
X2.76Y1.72
X1.605Y0.295
X0.96Y-0.04
X1.7Y1.04
X1.24Y1.26
X4.19Y1.21
X4.89Y2.015
X5.05Y1.73
X1.36Y1.34
X3.17Y1.045
X3.12Y1.535
X0.8Y0.72
X2.315Y2.585
X4.405Y2.13
X1.645Y-0.335
X3.445Y2.435
X2.74Y1.22
X3.91Y0.34
X3.58Y0.37
X1.93Y1.1
X2.49Y0.02
X2.38Y2.32
X2.725Y1.58
X1.68Y0.33
X0.56Y1.465
X1.32Y0.22
X1.74Y1.02
X0.76Y1.48
X4.795Y0.985
X5.49Y1.9
X4.74Y-0.13
X3.4Y1.055
X3.135Y1.08
X2.125Y2.13
X0.76Y0.46
X3.97Y1.44
X4.44Y1.515
X3.495Y0.765
X3.36Y-0.25
X2.71Y1.26
X4.67Y0.23
X3.27Y-0.21
X2.94Y0.41
X1.73Y0.52
X1.64Y-0.12
X2.47Y2.355
X2.615Y1.69
X2.795Y1.755
X4.91Y0.23
X1.5Y1.86
X0.82Y1.84
X4.29Y1.19
X5.61Y1.9
X5.05Y1.57
X2.22Y2.8
X3.205Y1.15
X3.135Y1.415
X0.8Y0.4
X2.545Y2.455
X4.44Y1.445
X4.87Y-0.3
X3.595Y2.69
X2.65Y1.46
X3.16Y0.27
X3.98Y-0.21
X3.08Y0.69
X2.43Y0.61
X0.89Y-0.15
X2.76Y1.65
X4.825Y0.235
X0.56Y1.045
T3
X0.72Y2.1
X0.94Y2.22
X1.08Y2.14
X1.38Y-0.04
X1.44Y2.1
X1.62Y1.78
X1.62Y1.5
X1.62Y1.22
X1.62Y0.94
X1.62Y0.62
X1.98Y2.21
X2.28Y-0.32
X2.47Y1.58
X2.6Y1.58
X2.7Y1.02
X2.74Y1.44
X3.06Y1.69
X3.1Y1.69
X3.14Y1.69
X3.18Y1.69
X3.22Y1.69
X3.6Y1.46
X3.74Y1.46
X3.88Y1.46
X4.02Y1.46
X4.16Y1.46
X4.3Y1.46
X4.6063Y2.5984
X1.0964Y2.3637
X1.0964Y2.3243
X1.0964Y2.2849
X1.0964Y2.2456
X1.1436Y2.3637
X1.1436Y2.3243
X1.1436Y2.2849
X1.1436Y2.2456
T4
X5.58Y2.1
T5
X1.67Y2.19
X1.67Y2.0916
X1.796Y2.19
X1.796Y2.0916
T6
X4.82Y1.7
X4.67Y1.7
T7
X2.0231Y1.43
X2.1216Y1.43
X2.22Y1.43
X2.3184Y1.43
X2.4169Y1.43
T8
X1.6142Y2.5984
T9
X1.0236Y2.0472
X1.0236Y1.8898
X1.0236Y1.7323
X1.0236Y1.5748
X1.0236Y1.4173
X1.0236Y1.2598
X1.0236Y1.1024
X1.0236Y0.9449
X1.0236Y0.7874
X1.0236Y0.6299
X1.0236Y0.4724
X1.0236Y0.315
X1.1811Y1.9685
X1.1811Y1.811
X1.1811Y1.6535
X1.1811Y1.4961
X1.1811Y1.3386
X1.1811Y1.1811
X1.1811Y1.0236
X1.1811Y0.8661
X1.1811Y0.7087
X1.1811Y0.5512
X1.1811Y0.3937
X1.3386Y2.0472
X1.3386Y1.8898
X1.3386Y1.7323
X1.3386Y1.5748
X1.3386Y1.4173
X1.3386Y1.2598
X1.3386Y1.1024
X1.3386Y0.9449
X1.3386Y0.7874
X1.3386Y0.6299
X1.3386Y0.4724
X1.3386Y0.315
X4.9606Y2.0472
X4.9606Y1.8898
X4.9606Y1.7323
X4.9606Y1.5748
X4.9606Y1.4173
X4.9606Y1.2598
X4.9606Y1.1024
X4.9606Y0.9449
X4.9606Y0.7874
X4.9606Y0.6299
X4.9606Y0.4724
X4.9606Y0.315
X5.1181Y1.9685
X5.1181Y1.811
X5.1181Y1.6535
X5.1181Y1.4961
X5.1181Y1.3386
X5.1181Y1.1811
X5.1181Y1.0236
X5.1181Y0.8661
X5.1181Y0.7087
X5.1181Y0.5512
X5.1181Y0.3937
X5.2756Y2.0472
X5.2756Y1.8898
X5.2756Y1.7323
X5.2756Y1.5748
X5.2756Y1.4173
X5.2756Y1.2598
X5.2756Y1.1024
X5.2756Y0.9449
X5.2756Y0.7874
X5.2756Y0.6299
X5.2756Y0.4724
X5.2756Y0.315
X2.5984Y2.3228
X2.5984Y2.0079
X2.6772Y2.1654
X2.7559Y2.3228
X2.7559Y2.0079
X2.8346Y2.1654
X2.9134Y2.3228
X2.9134Y2.0079
X2.9921Y2.1654
X3.0709Y2.3228
X3.0709Y2.0079
X3.1496Y2.1654
X3.2283Y2.3228
X3.2283Y2.0079
X3.3071Y2.1654
X3.3858Y2.3228
X3.3858Y2.0079
X3.4646Y2.1654
X3.5433Y2.3228
X3.5433Y2.0079
X3.622Y2.1654
X3.7008Y2.3228
X3.7008Y2.0079
T10
X1.7767Y2.3778
X1.7767Y1.9038
T11
X0.7559Y2.4291
X0.7559Y-0.0669
X1.4685Y2.4882
X1.4685Y-0.126
X4.8307Y2.4882
X4.8307Y-0.126
X5.5433Y2.4291
X5.5433Y-0.0669
X2.1575Y1.878
X2.2165Y2.5906
X4.0827Y2.5906
X4.1417Y1.878
T0
M30
